<svg width="28" height="28" fill="none" xmlns="http://www.w3.org/2000/svg"><path d="m23.04 5.484-2.928-2.926a1.892 1.892 0 0 0-2.684 0l-3.155 3.149a1.898 1.898 0 0 0 0 2.689l2.464 2.466a11.149 11.149 0 0 1-2.376 3.5 11.173 11.173 0 0 1-3.498 2.382L8.4 14.277a1.892 1.892 0 0 0-2.684 0l-3.157 3.149a1.898 1.898 0 0 0 0 2.689l2.926 2.925c.61.61 1.452.96 2.316.96.179 0 .352-.014.528-.044 3.64-.6 7.254-2.538 10.172-5.453 2.915-2.92 4.851-6.533 5.456-10.176a3.278 3.278 0 0 0-.916-2.843ZM22.006 8c-.536 3.242-2.28 6.475-4.906 9.101-2.626 2.626-5.857 4.37-9.1 4.905a1.293 1.293 0 0 1-1.121-.363L4.005 18.77l3.047-3.05 3.294 3.3.025.025.594-.22a13.235 13.235 0 0 0 7.857-7.858l.22-.594-3.322-3.32 3.047-3.048 2.874 2.873c.297.297.434.715.365 1.122Z" fill="#0E0E0E"/></svg>