<svg width="367" height="202" fill="none" xmlns="http://www.w3.org/2000/svg"><path opacity=".5" fill-rule="evenodd" clip-rule="evenodd" d="M296.683 161.594c3.405 23.3-79.161 38.498-150.227 27.892C75.39 178.879 42.788 137.46 76.7 115.391c33.911-22.07 216.578 22.902 219.983 46.203Z" fill="#F58B3D"/><path fill-rule="evenodd" clip-rule="evenodd" d="M194.545 64.5c1.285-.899 3.278-.326 4.571.204.499.205 1.772.859 2.717 1.595a29.428 29.428 0 0 1-.334-1.544 53.042 53.042 0 0 1-.807-6.47c-.034-.564.011-1.194.056-1.832v-.001c.015-.216.031-.433.044-.648a.372.372 0 0 1-.102-.217l-.011.095c-.004.04-.006.06-.012.06-.007.003-.019-.014-.043-.048a1.015 1.015 0 0 0-.034-.046c-.955-1.308-1.758-2.783-1.868-4.403-.094-1.374 1.14-3.975 2.889-2.175.783.804.579 6.45-.596 6.797.314 1.87.709 3.739 1.203 5.583a.797.797 0 0 1 .224-.004c-.007-.458-.007-.959.013-1.13.176-1.483 1.529-4.491 3.682-3.907 1.654.449.64 2.297.077 3.105-.906 1.303-1.931 1.866-3.23 2.544-.026.28-.223.443-.456.495.87 2.978 2.012 5.883 3.507 8.627l.039-.175c.19-.832.411-1.803.551-2.007.733-1.068 2.355-2.371 3.85-1.74 3.141 1.329-.268 5.146-2.942 5.561-.111.14-.229.254-.354.319a35.11 35.11 0 0 0 1.669 2.43 73.017 73.017 0 0 0 2.853 3.55c.031-.921.428-2.974.541-3.195.686-1.34 2.662-2.718 4.265-1.767 1.804 1.074.168 3.101-.86 4.019-.422.376-2.507 1.755-3.242 1.76 2.425 2.778 5.103 5.507 7.825 8.138-.226-1.177-.52-4.42-.487-4.78.169-1.859 1.502-4.831 4.131-4.107 2.549.702 1.421 3.789.548 5.26-.528.892-1.259 1.797-2.141 2.418-.158.112-.366.203-.573.294-.25.11-.499.22-.662.366-.145.13-.19.278-.234.425-.047.156-.093.31-.257.44a292.159 292.159 0 0 0 4.413 4.148 95.79 95.79 0 0 0 2.099 1.876c.388-.147.94.047.911.55a.555.555 0 0 1-.047.193c.537.457 1.077.911 1.622 1.36a3.064 3.064 0 0 1 .016-.57c-.392.51-.376-.233-.363-.8.004-.2.008-.378-.007-.472-.057-.364-.132-.725-.206-1.085-.159-.77-.318-1.536-.31-2.33.017-1.686 1.183-4.512 3.637-3.508 2.255.921 1.435 3.42.584 4.986-.539.991-1.276 1.876-2.047 2.723a7.71 7.71 0 0 0-.44.559c-.225.301-.445.597-.609.708 2.095 1.719 4.239 3.388 6.383 5.056l.001.002c.96.747 1.92 1.494 2.875 2.246.042-.165.077-.329.106-.482a.299.299 0 0 1-.245.085 26.348 26.348 0 0 0-.117-.497c-.59-2.465-2.388-9.973 2.481-8.518 3.567 1.07 1.049 7.607-1.612 9.894a168.276 168.276 0 0 1 4.776 3.902 66.207 66.207 0 0 1 3.282 2.991c-.546-1.334-1.06-3.06-.722-4.434.491-2 2.794-3.888 5.043-2.75 2.804 1.424.647 3.37-1.376 5.194-1.032.932-2.03 1.832-2.314 2.614 3.353 3.379 6.217 7.132 8.13 11.408 2.081 4.649 4.013 10.897 2.944 16.098.197-2.287-.646-5.159-1.239-7.176a124.63 124.63 0 0 1-.225-.772 38.949 38.949 0 0 0-3.821-9.021c-2.669-4.563-6.196-8.436-10.266-11.952-.927.296-1.934.844-2.768 1.297-.511.278-.958.521-1.281.649-1.557.615-4.548 1.498-5.54-.441-.976-1.906 1.515-2.973 3.058-3.4 1.492-.412 2.836-.363 4.227-.025-2.154-1.75-4.361-3.444-6.568-5.138l-.001-.001-1.217-.935c-.561.421-1.18 1.031-1.838 1.677-2.088 2.053-4.562 4.484-6.771 2.498-3.334-2.998 3.042-6.046 5.759-5.808.333.029.656.094.97.181-2.77-2.154-5.497-4.353-8.077-6.706-.463.078-1.2.701-2.085 1.451-1.989 1.685-4.728 4.004-6.791 2.178-1.49-1.318-.98-3.371.46-4.545 1.445-1.18 3.54-1.177 5.321-.78.77.17 1.48.497 2.142.894l.082.004c-2.538-2.34-5.092-4.733-7.551-7.208l-.131.04c-.149.166-.398.227-.626.19l-.385.122c-1.949.616-4.453 1.408-6.395 1.066-1.429-.251-2.726-1.316-1.516-2.626.983-1.066 3.652-.913 4.953-.66.635.123 1.327.48 2.02.84.292.15.584.3.872.434a.572.572 0 0 1 .354-.27c-2.429-2.486-4.746-5.059-6.848-7.743-.637.09-1.342.347-2.07.61-1.751.636-3.631 1.318-4.98-.15-1.992-2.17 1.754-3.436 3.534-3.23.601.07 1.194.226 1.767.432a27.523 27.523 0 0 1-3.519-7.053l-.023.011a.432.432 0 0 1-.037.018l.034-.019.024-.014a27.68 27.68 0 0 1-.235-.748 2.861 2.861 0 0 0-.331-.144c.809.51-2.604.76-3.243.807-1.413.104-3.306.142-4.343-.918-.87-.891-.819-2.207.246-2.952Zm65.05 75.044c-.06.753-.209 1.444-.486 2.013.208-.648.367-1.322.486-2.013Z" fill="#F58B3D"/><path opacity=".2" fill-rule="evenodd" clip-rule="evenodd" d="M130.391 16.359c-.937-.65-2.393-.235-3.337.15-.364.147-1.294.62-1.984 1.153.091-.369.173-.74.244-1.116.293-1.543.494-3.116.592-4.679.025-.408-.007-.863-.04-1.325a24.734 24.734 0 0 1-.032-.469.27.27 0 0 0 .075-.157l.007.07c.003.028.004.042.01.043.004.001.013-.01.031-.035l.024-.034c.699-.946 1.285-2.012 1.366-3.184.069-.994-.831-2.874-2.108-1.572-.572.582-.426 4.665.432 4.915a42.791 42.791 0 0 1-.881 4.037.578.578 0 0 0-.163-.003 9.65 9.65 0 0 0-.009-.817c-.128-1.072-1.115-3.247-2.686-2.824-1.209.325-.469 1.661-.058 2.246.661.941 1.409 1.349 2.357 1.838.019.202.163.32.332.358-.635 2.154-1.47 4.255-2.563 6.24l-.029-.127c-.138-.602-.3-1.304-.402-1.451-.534-.772-1.718-1.714-2.81-1.257-2.294.961.194 3.72 2.146 4.02a.836.836 0 0 0 .259.23 25.39 25.39 0 0 1-1.22 1.757 53.174 53.174 0 0 1-2.084 2.569c-.023-.666-.312-2.15-.394-2.31-.5-.968-1.943-1.965-3.114-1.276-1.317.777-.124 2.242.627 2.905.307.272 1.829 1.268 2.366 1.273-1.772 2.009-3.728 3.983-5.717 5.887.166-.852.382-3.198.358-3.458-.122-1.343-1.095-3.492-3.014-2.967-1.862.508-1.04 2.74-.403 3.804.386.644.919 1.298 1.562 1.747.116.08.268.147.419.213.182.079.364.158.483.263.106.094.138.201.17.308.034.113.068.224.188.317a212.197 212.197 0 0 1-3.224 3.002A69.38 69.38 0 0 1 106.634 38c-.283-.106-.687.034-.666.397a.405.405 0 0 0 .035.14c-.392.331-.787.66-1.185.985a2.16 2.16 0 0 0-.011-.412c.286.369.274-.17.265-.579-.003-.145-.006-.274.005-.341.042-.264.097-.524.151-.785.117-.556.233-1.111.227-1.685-.012-1.219-.862-3.262-2.654-2.535-1.647.666-1.049 2.473-.428 3.605.393.717.931 1.356 1.493 1.969.1.109.212.257.322.403.163.218.324.432.444.512a233.45 233.45 0 0 1-4.662 3.659c-.703.541-1.404 1.082-2.102 1.626a6.576 6.576 0 0 1-.077-.349.221.221 0 0 0 .18.062c.02-.091.05-.213.085-.36.432-1.782 1.748-7.212-1.808-6.158-2.605.774-.77 5.501 1.172 7.154-1.179.924-2.347 1.86-3.488 2.823a47.97 47.97 0 0 0-2.398 2.163c.4-.964.776-2.213.53-3.206-.358-1.446-2.04-2.81-3.682-1.986-2.047 1.03-.473 2.436 1.003 3.755.753.673 1.481 1.324 1.689 1.89-2.45 2.444-4.543 5.159-5.941 8.25-1.521 3.364-2.934 7.882-2.156 11.643-.143-1.654.474-3.731.907-5.19.06-.198.115-.386.164-.559a28.084 28.084 0 0 1 2.794-6.524c1.951-3.3 4.527-6.101 7.501-8.646.677.214 1.412.61 2.02.938.373.2.7.376.935.468 1.137.445 3.32 1.082 4.046-.32.713-1.38-1.105-2.15-2.232-2.458-1.089-.298-2.07-.261-3.087-.016 1.575-1.267 3.187-2.493 4.799-3.719l.889-.676c.41.304.862.744 1.342 1.212 1.524 1.483 3.328 3.24 4.942 1.803 2.436-2.169-2.218-4.37-4.202-4.197a3.934 3.934 0 0 0-.709.131c2.024-1.559 4.016-3.15 5.9-4.852.338.056.876.507 1.522 1.049 1.452 1.217 3.451 2.893 4.958 1.572 1.088-.954.717-2.438-.334-3.286-1.055-.852-2.585-.85-3.885-.562-.562.123-1.081.36-1.564.647-.021 0-.041.002-.06.003 1.854-1.693 3.719-3.424 5.516-5.215l.096.029c.108.12.29.164.457.138l.279.087h.002c1.422.445 3.25 1.017 4.668.77 1.044-.183 1.991-.953 1.108-1.9-.717-.77-2.666-.659-3.616-.476-.464.09-.969.348-1.475.607-.213.11-.426.219-.637.316a.414.414 0 0 0-.258-.196c1.774-1.798 3.467-3.66 5.003-5.601.465.065.98.25 1.511.44 1.279.46 2.651.952 3.636-.11 1.455-1.57-1.279-2.484-2.579-2.334-.439.05-.872.164-1.29.313a19.858 19.858 0 0 0 2.572-5.102l.017.009a.287.287 0 0 0 .027.012l-.025-.013-.018-.01c.06-.18.118-.36.172-.541.102-.052.197-.09.242-.105-.591.37 1.901.55 2.368.583 1.031.074 2.413.102 3.171-.666.636-.644.599-1.596-.179-2.134ZM82.822 70.49c.046.503.18.96.448 1.337a6.947 6.947 0 0 1-.448-1.337Z" fill="#F1F447"/><g opacity=".7" fill-rule="evenodd" clip-rule="evenodd"><path opacity=".7" d="M231.725 104.978c5.058-.24 11.313 2.461 11.853 7.491.392 3.655.271 7.3.877 10.949.485 2.917 1.511 5.717 2.91 8.373 1.346 2.555 4.136 4.73 4.862 7.459.463 1.74.204 4.186-.434 5.887-.776 2.068-.363 1.905 1.183 3.64 3.029 3.401 5.757 6.889 7.686 10.951 2.779 5.85 4.601 12.689 3.569 19.093-.131.813-.286 3.731-1.51 3.935-1.368.229-.728-1.44-.655-1.98.465-3.44.878-6.447.317-9.941-2.165-13.481-12.735-22.363-19.617-33.804-.379-.59-1.177-1.995-1.733-2.922-.877-1.464-1.758-4.248-2.945-5.333-2.235-2.044-.18 2.065.255 2.85.551.992 1.157 2.047 1.722 2.916 2.582 4.031 5.464 8.431 8.131 12.587-11.534 2.404-19.657-10.283-22.753-18.624-2.55-6.872-5.601-22.939 6.282-23.527Z" fill="#B45661"/><path opacity=".7" d="M299.515 92.216c-8.454.614-13.883 5.719-16.409 12.859-1.362 3.847-1.518 7.8-2.275 11.754-1.138 5.949-3.588 10.458-8.375 14.696-1.483 1.313-2.576 2.66-3.352 4.102-1.542 1.44-2.884 3.069-3.871 5.061-1.259 2.543-1.616 5.595-.162 8.131.392.682 1.367 2.051 2.378 2.672-3.785 7.376-5.866 15.454-5.632 23.522.142 4.87.402 9.743.705 14.607.082 1.306.547 3.463 1.245 1.272.639-2.003-.163-5.149-.237-7.241-.361-10.197-.669-19.468 3.918-28.994.482-.999.992-1.989 1.523-2.971.031-.017.06-.037.089-.056l.059.043c.034-.055.081-.121.135-.195.152-.144.285-.325.412-.528.406-.516.867-1.122.87-1.454l-.002-.009c2.84-4.242 6.093-8.249 9.415-12.179-.025.029 3.604-4.492 3.043-1.992-.27 1.205-2.94 3.499-4.018 4.775-2.384 2.839-5.185 6.437-7.512 9.915-.313.165-.755.973-1.075 1.575-.177.305-.342.613-.504.881 8.246 2.492 14.66-2.529 19.034-8.368l.014-.021c1.332-1.614 2.695-3.216 4.398-4.492 2.842-2.128 5.885-2.504 9.236-3.551 9.137-2.857 13.022-13.691 14.256-21.731 1.392-9.069-5.417-22.977-17.306-22.083Z" fill="#E7502F"/><path opacity=".7" d="M282.814 66.817c-8.678 8.264-12.871 19.726-16.19 30.5-3.708 12.036-6.157 24.256-6.251 36.769-.062 8.22-.306 16.493.218 24.704.186 2.916.504 5.837 1.009 8.722.042.237 1.172 6.679 2.254 5.178.615-.854-1.159-6.682-1.293-7.653-.754-5.468-.929-10.976-.892-16.483.06-9.068-.232-18.089.773-27.123.149-1.349.268-2.765.618-4.085.372-1.403-.102-.79 1.109-1.346 1.177-.54 2.631-.463 3.852-1.14 4.843-2.687 7.32-9.589 9.249-14.117 2.205-5.179 3.546-10.701 4.616-16.151a104.7 104.7 0 0 0 1.666-12.04c.101-1.278.107-2.614.381-3.871.074-.34.445-.939.432-1.24-.029-.635-.448-1.008-.482-1.542-.364.299-.72.605-1.069.918ZM235.496 176.917c0 13.666 12.108 24.744 27.044 24.744 14.937 0 27.045-11.078 27.045-24.744" fill="#E7502F"/><path opacity=".7" d="M281.075 155.251c6.693-.451 14.168 4.49 17.396 9.631 2.603 4.145 2.165 9.589.557 13.993-1.077 2.948-3.426 7.152-7.344 7.193-4.902.051-5.139-5.492-5.234-8.733-.125-4.308-.72-8.061-4.431-10.998a32.72 32.72 0 0 0-1.419-1.041 34.31 34.31 0 0 1-1.264-.92l-.198-.152c-1.313-1.009-2.69-2.069-2.858-3.732-.243-2.41 1.244-2.844 3.514-2.396.073.015.272.083.543.177 1.159.402 3.633 1.261 3.165.235-.176-.387-.82-.693-1.632-.922-2.102-.21-4.61-.452-5.33-.307-7.779 1.561-10.807 11.419-11.611 17.683a55.125 55.125 0 0 0-.219 2.033h-1.429c.1-1.64.23-3.278.53-4.9 1.147-6.204 4.731-15.316 12.593-16.323.29-.038 1.357-.044 2.649.025a5.115 5.115 0 0 1 2.022-.546Z" fill="#B45661"/></g><g opacity=".5" fill-rule="evenodd" clip-rule="evenodd"><path opacity=".5" d="M117.027 59.785c1.557-2.03 4.446-7.189 6.637-7.915 1.411-.467 1 4.368 1.017 5.29.068 3.568-.311 7.112-.78 10.65-.845 6.379-3.606 12.06-7.393 17.49-1.949 2.793-4.235 5.621-7.401 7.364-1.457.803-3.211.937-4.65 1.63-1.676.804-.763.153-1.519 1.751-1.049 2.22-1.384 5.082-1.87 7.449-2.228 10.868-7.624 68.32-6.688 79.374.083.98-1.41 1.214-1.485.018-.396-6.342 3.032-50.265 4.763-64.628 1.73-14.364 3.48-27.054 5.235-32.023 2.129-6.03 5.975-13.28 9.176-18.902 1.487-2.612 3.108-5.134 4.958-7.547Z" fill="#B45661"/><path opacity=".5" d="M128.582 130.234c4.051-2.721 8.437 2.414 4.771 5.136-2.027 1.504-4.146.969-5.338-.285-.775.864-1.499 1.767-2.196 2.529a128.63 128.63 0 0 0-6.043 7.139c-3.981 5.058-7.393 10.402-10.96 15.649-3.52 5.178-7.012 10.382-10.203 15.691-2.703 4.498-6.306 9.79-7.231 14.721 1.404-10.458 6.732-20.51 13.077-29.73 6.293-9.144 13.515-19.131 23.259-26.347-.992-1.334-1.019-3.239.864-4.503Z" fill="#F1F447"/><path opacity=".5" d="M51.709 104.728c2.267.405 5.971 5.097 7.84 6.885 2.22 2.125 4.235 4.389 6.135 6.762 4.088 5.107 7.745 10.536 10.854 16.198 5.069 9.231 9.13 18.706 12.077 28.757 1.805 6.153 2.973 12.53 3.665 18.863.13 1.194 1.499 10.402-.473 10.65-1.774.223-1.226-6.991-1.311-7.973-.968-11.072-3.865-21.846-7.895-32.282-.878-2.274-1.693-5.058-3.097-7.104-1.011-1.474-.008-.96-1.784-1.517-1.526-.48-3.264-.362-4.826-.949-3.394-1.273-6.112-3.745-8.494-6.232-4.629-4.833-8.297-10.06-10.21-16.253-1.06-3.433-2.035-6.886-2.576-10.426-.14-.914-1.365-5.641.095-5.379Z" fill="#B45661"/><path opacity=".5" d="M60.655 26.659c8.54 13.55 15.557 28.434 20.088 43.51 2.745 9.133 4.665 18.507 6.573 27.811 2.953 14.408 5.747 28.815 6.541 43.479.8 14.749 2.38 31.76-2.897 45.966 2.636-14.423.126-29.774-.319-44.286-.212-6.928-.827-13.788-1.635-20.675-.784-6.681-2.063-13.331-3.255-19.959-.58-3.228-1.19-6.452-1.812-9.673-.185-.961-.263-3.813-.93-4.47-.67-.661-4.092-.93-5.167-1.416-2.163-.976-4.198-2.364-5.999-3.83-3.452-2.81-6.456-6.482-8.826-10.102-5.485-8.375-7.678-18.596-7.567-28.296.02-1.883 3.331-22.163 2.002-22.442.08-.086.156-.174.227-.267a364.929 364.929 0 0 1 2.976 4.65Z" fill="#E7502F"/><path opacity=".5" d="M152.823 75.528c.132-.174.99-1.383.558-1.306.879-.158-1.21 1.334.981.419-1.04.899-.44 2.066-.426 3.276.023 1.964-.336 3.912-.741 5.834-.639 3.038-1.59 5.992-2.972 8.817-3.011 6.158-8.123 12.086-14.193 15.936-2.996 1.9-5.933 2.548-9.35 3.423-2.159.553-2.33 1.574-3.476 3.491-2.385 3.991-4.728 7.969-6.831 12.095-2.512 4.927-4.951 9.86-7.251 14.874-7.749 16.889-14.056 34.387-17.368 52.495-.081-10.671 2.617-21.662 6.02-31.833 2.479-7.411 5.706-14.554 9.149-21.625.834-1.714 2.098-3.917 2.452-5.809.248-1.325-.51-2.599-.857-3.995-1.354-5.436-1.257-11.527-.068-16.992 1.31-6.026 5.1-8.823 11.512-9.677 2.344-.312 5.325-.198 7.475-1.113 2.342-.995 3.308-4.27 4.641-6.371 3.577-5.647 7.828-11.061 12.709-15.818a40.157 40.157 0 0 1 4.347-3.66c.972-.71 3.027-1.586 3.689-2.461Z" fill="#E7502F"/><path opacity=".5" d="M79.099 185.299c-.165-1.023.701-1.942 1.832-1.942h22.754c1.13 0 1.997.919 1.832 1.942l-1.759 10.911c-.536 3.326-3.655 5.79-7.33 5.79h-8.24c-3.675 0-6.795-2.464-7.33-5.79l-1.76-10.911Z" fill="#F1F447"/></g><path fill-rule="evenodd" clip-rule="evenodd" d="M60.417 188.935c0 7.215.622 13.065 8.975 13.065 8.354 0 8.976-5.85 8.976-13.065" fill="#F58B3D"/><path fill-rule="evenodd" clip-rule="evenodd" d="M71.878 184.433c-.307.484-.58.978-.82 1.48a18.557 18.557 0 0 1 .224-3.128c.29-1.807.736-3.604 1.154-5.398.3-1.289.282-3.605 1.422-4.633.313-.222.388.214.388.403.004.04 0-.772-.304-.63-1.805.852-2.39 3.533-2.967 4.876-.843 1.959-1.56 3.962-1.855 6.001a12.3 12.3 0 0 0-.125 1.543c-.061-.137-.119-.276-.183-.413a27.503 27.503 0 0 0-4.2-6.426c-.431-.495-5.856-5.378-6.281-4.631.042.109.13.199.263.271.008.008.008.003.004-.009.319.471 1.224 1.198 1.507 1.611.71 1.038 1.262 2.14 1.823 3.221a164.808 164.808 0 0 1 3.35 6.904c.248.539.506 1.075.77 1.608-2.72-3.589-6.348-6.848-11.343-8.713 1.706.794 2.824 2.288 3.977 3.432 1.39 1.38 2.853 2.722 4.245 4.1 1.642 1.626 3.574 3.339 5.153 5.138 1.53 2.939 3.017 5.881 3.935 8.97-.376-1.068-.03-2.543-.094-3.663a22.77 22.77 0 0 0-.321-2.659c.193.399.359.797.434 1.168a68.282 68.282 0 0 0-.233-1.854c.219-.575.433-1.112.578-1.554.743-2.268 1.627-4.497 2.831-6.67a58.62 58.62 0 0 1 3.786-5.918c.65-.896 1.308-1.79 1.963-2.685.428-.586.836-1.524 1.432-2.086-3.855 3.225-8.067 6.474-10.513 10.344ZM305.75 37.204c-1.105-3.373-3.7-6.013-6.394-8.432-5.244-4.709-8.064-7.62-9.933-14.51-1.1-4.05-2.218-8.344-5.705-11.283-2.538-2.14-6.907-3.94-10.301-2.406-5.223 2.852-6.626 8.704-6.099 13.945.653 6.496 3.969 10.501 10.34 12.894 3.59 1.347 5.976 3.126 7.925 6.224 1.559 2.477 2.467 5.579 4.426 7.825 2.929 3.357 6.593 4.85 11.11 4.292-4.231-7.122-9.174-14.311-15.136-20.308-.558-.603-3.85-2.91-3.186-3.938.731-1.131 4.111 3.118 4.087 3.093 1.732 1.82 3.336 3.753 4.91 5.706l-.013.004a297.219 297.219 0 0 1 4.807 6.095 65.44 65.44 0 0 1 1.853 2.656c.872 1.327 2.257 5.091 3.684 5.907.305.174.588.272.852.312.974 1.459 1.921 2.93 2.823 4.418 2.353 3.886 4.374 7.99 5.3 12.378.271 1.28.08 6.071 1.035 6.996 1.747 1.691 1.235-1.566 1.131-2.549-.868-8.14-4.062-15.074-8.699-21.917 1.425-1.702 1.631-6.035 1.183-7.402ZM245.917 41.137c1.842-1.985 6.269-2.322 8.977-2.19 3.35.165 6.792.912 9.98 1.814 5.25 1.486 10.353 4.198 14.977 6.824.558.316 7.424 4.094 6.816 4.757-.602.657-7.342-3.83-8.845-4.604-3.205-1.651-6.145-3.604-9.679-4.694-3.658-1.13-7.527-1.576-11.375-1.545-.494.004-2.104-.311-2.139.357-.034.654 2.631.313 3.101.317 1.941.016 3.894.183 5.807.491 3.585.576 6.955 1.738 10.026 3.52-.857 1.822-2.91 2.662-5.065 2.206-1.862-.394-3.677-1.367-5.501-1.648-1.255-.193-2.512-.078-3.73.246-3.212.854-5.065 2.603-8.596 1.386-2.768-.954-7.399-4.382-4.754-7.237ZM237.997 9.146c-4.089-.273-8.656 2.713-10.628 5.821-1.59 2.505-1.323 5.795-.34 8.457.657 1.782 2.093 4.323 4.487 4.348 2.995.03 3.139-3.32 3.197-5.278.077-2.604.44-4.873 2.707-6.648.28-.219.574-.424.868-.629.26-.182.521-.364.772-.556.04-.03.08-.06.12-.092.802-.61 1.644-1.25 1.747-2.255.148-1.457-.76-1.719-2.147-1.448-.045.008-.167.05-.332.107-.708.243-2.22.761-1.934.141.108-.233.501-.418.997-.557 1.285-.126 2.816-.273 3.257-.185 4.752.943 6.602 6.901 7.093 10.687.056.429.101.859.139 1.29h.872c-.061-1.012-.141-2.022-.328-3.023-.7-3.75-2.89-9.257-7.693-9.865-.177-.023-.829-.027-1.619.015a3.145 3.145 0 0 0-1.235-.33Z" fill="#F58B3D"/></svg>